<?xml version="1.0" encoding="UTF-8"?><svg id="Layer_2" xmlns="http://www.w3.org/2000/svg" viewBox="0 0 185.75 185.75"><defs><style>.cls-1{fill:#1a93e3;}.cls-1,.cls-2{fill-rule:evenodd;}.cls-2{fill:#2791d0;}</style></defs><g id="Layer_1-2"><path class="cls-1" d="M139.18,56.21l-.99,2.77-.73,2.06-2.36,6.61c-3.51,9.86-12.93,16.62-23.44,16.62h-48.89l-16.2-28.06h92.61Z"/><path class="cls-2" d="M151.33,73.42c1.57,4.39,2.42,9.12,2.42,14.03,0,23.15-18.94,42.09-42.09,42.09h-54.18l-14.05,24.34H11.02c11.28-19.54,24.75-42.87,36.03-62.4l5.77,10h58.83c18.24,0,33.86-11.76,39.67-28.06Z"/><path class="cls-1" d="M92.88,0C41.58,0,0,41.58,0,92.88c0,15.79,3.95,30.67,10.9,43.69l6.15-10.65c-4.42-10.12-6.87-21.29-6.87-33.03C10.19,47.21,47.21,10.19,92.88,10.19s82.69,38.34,82.69,82.69c0,29.34-15.28,55.11-38.32,69.79h0c-12.82,8.17-28.04,12.9-44.37,12.9s-31.57-4.74-44.39-12.91h0s-16.9,0-16.9,0c16.35,14.38,37.8,23.1,61.29,23.1,16.29,0,32.19-4.22,46.29-12.35l.13-.07c27.77-16.06,46.46-46.07,46.46-80.46C185.75,43.16,145.71,0,92.88,0Z"/></g></svg>
